HIERARCHY
ROOT Hips
{
	OFFSET -0.001795 -0.223333 0.028219
	CHANNELS 6 Xposition Yposition Zposition Zrotation Yrotation Xrotation 
	JOINT LeftUpLeg
	{
		OFFSET 0.069520 -0.091406 -0.006815
		CHANNELS 3 Zrotation Yrotation Xrotation
		JOINT LeftLeg
		{
			OFFSET 0.034277 -0.375199 -0.004496
			CHANNELS 3 Zrotation Yrotation Xrotation
			JOINT LeftFoot
			{
				OFFSET -0.013596 -0.397961 -0.043693
				CHANNELS 3 Zrotation Yrotation Xrotation
				JOINT LeftToe
				{
					OFFSET 0.026358 -0.055791 0.119288
					CHANNELS 3 Zrotation Yrotation Xrotation
					End Site
					{
						OFFSET 0.000000 0.000000 0.000000
					}
				}
			}
		}
	}
	JOINT RightUpLeg
	{
		OFFSET -0.067670 -0.090522 -0.004320
		CHANNELS 3 Zrotation Yrotation Xrotation
		JOINT RightLeg
		{
			OFFSET -0.038290 -0.382569 -0.008850
			CHANNELS 3 Zrotation Yrotation Xrotation
			JOINT RightFoot
			{
				OFFSET 0.015774 -0.398415 -0.042312
				CHANNELS 3 Zrotation Yrotation Xrotation
				JOINT RightToe
				{
					OFFSET -0.025372 -0.048144 0.123348
					CHANNELS 3 Zrotation Yrotation Xrotation
					End Site
					{
						OFFSET 0.000000 0.000000 0.000000
					}
				}
			}
		}
	}
	JOINT Spine
	{
		OFFSET -0.002533 0.108963 -0.026696
		CHANNELS 3 Zrotation Yrotation Xrotation
		JOINT Spine1
		{
			OFFSET 0.005487 0.135180 0.001092
			CHANNELS 3 Zrotation Yrotation Xrotation
			JOINT Spine2
			{
				OFFSET 0.001457 0.052922 0.025425
				CHANNELS 3 Zrotation Yrotation Xrotation
				JOINT Neck
				{
					OFFSET -0.002778 0.213870 -0.042857
					CHANNELS 3 Zrotation Yrotation Xrotation
					JOINT Head
					{
						OFFSET 0.005152 0.064970 0.051349
						CHANNELS 3 Zrotation Yrotation Xrotation
						End Site
						{
							OFFSET 0.000000 0.000000 0.000000
						}
					}
				}
				JOINT LeftShoulder
				{
					OFFSET 0.078845 0.121749 -0.034090
					CHANNELS 3 Zrotation Yrotation Xrotation
					JOINT LeftArm
					{
						OFFSET 0.090977 0.030469 -0.008868
						CHANNELS 3 Zrotation Yrotation Xrotation
						JOINT LeftForeArm
						{
							OFFSET 0.259612 -0.012772 -0.027456
							CHANNELS 3 Zrotation Yrotation Xrotation
							JOINT LeftHand
							{
								OFFSET 0.249234 0.008986 -0.001171
								CHANNELS 3 Zrotation Yrotation Xrotation
								End Site
								{
									OFFSET 0.000000 0.000000 0.000000
								}
							}
						}
					}
				}
				JOINT RightShoulder
				{
					OFFSET -0.081759 0.118833 -0.038615
					CHANNELS 3 Zrotation Yrotation Xrotation
					JOINT RightArm
					{
						OFFSET -0.096012 0.032551 -0.009143
						CHANNELS 3 Zrotation Yrotation Xrotation
						JOINT RightForeArm
						{
							OFFSET -0.253742 -0.013329 -0.021401
							CHANNELS 3 Zrotation Yrotation Xrotation
							JOINT RightHand
							{
								OFFSET -0.255298 0.007772 -0.005559
								CHANNELS 3 Zrotation Yrotation Xrotation
								End Site
								{
									OFFSET 0.000000 0.000000 0.000000
								}
							}
						}
					}
				}
			}
		}
	}
}
MOTION
Frames: 7
Frame Time: 0.050000
-0.140297 1.004890 -0.016720 -2.567983 7.782347 1.313006 1.644657 0.986556 18.969048 6.139208 -4.505850 32.389933 -6.555713 -1.302194 20.113635 0.000000 0.000000 0.000000 6.843612 3.198874 -22.475848 0.149382 0.315666 13.477883 -5.086224 -13.756038 15.173069 0.000000 0.000000 0.000000 0.341769 -0.201986 4.252531 6.636475 -3.402112 1.333244 -2.684249 -14.357414 7.683377 -3.156723 1.985107 -22.467715 0.000000 0.000000 0.000000 -10.063899 -1.158029 0.981176 -46.970441 -13.889364 -0.830080 -134.482836 -57.277931 119.774786 0.000000 0.000000 0.000000 0.694380 -4.611337 -1.704541 46.143832 -21.633063 -13.133878 98.641592 43.777118 45.635004 0.000000 0.000000 0.000000 
-0.145173 0.955930 -0.016508 -3.279260 4.303505 -0.810517 3.469087 0.602256 13.262883 2.728898 -5.156685 53.384529 -4.126685 1.753282 20.693779 0.000000 0.000000 0.000000 10.319754 3.505131 -19.778883 2.099609 -0.038056 27.454104 -5.813171 -14.667486 2.125619 0.000000 0.000000 0.000000 1.667446 -0.358207 6.026884 5.124371 -2.753382 2.638320 -1.371224 -12.073554 8.982503 -5.322415 3.150343 -27.738117 0.000000 0.000000 0.000000 -12.193062 3.365570 -1.180259 -46.281022 -9.986248 -2.484387 -129.129285 -54.704354 108.731203 0.000000 0.000000 0.000000 1.267331 -0.723793 -0.517765 50.287858 -12.248829 -10.781380 99.107449 54.670264 59.122053 0.000000 0.000000 0.000000 
-0.150565 0.910399 -0.025054 -2.795139 1.037540 -3.183571 3.545845 0.319534 5.878540 1.689772 -5.000806 67.855677 -1.500861 3.219744 14.773724 0.000000 0.000000 0.000000 11.731896 3.082858 -15.849991 1.595117 0.618663 37.029529 -6.192536 -14.479426 -6.859767 0.000000 0.000000 0.000000 1.671975 -0.492614 8.805033 3.215616 -1.758803 2.856208 -0.080817 -5.906669 9.306859 -4.066689 3.108987 -26.904381 0.000000 0.000000 0.000000 -14.110125 2.928339 -1.709430 -43.548212 -1.629108 -5.203121 -121.570268 -53.703701 93.511389 0.000000 0.000000 0.000000 4.631309 2.636701 0.321581 49.783256 -2.959225 -6.586707 103.627247 64.483104 77.527433 0.000000 0.000000 0.000000 
-0.153024 0.903899 -0.035854 -1.398373 -1.380600 -2.676617 2.092400 -0.615449 -8.397725 -0.287478 -2.493978 77.076901 1.225618 6.288015 10.831848 0.000000 0.000000 0.000000 10.862498 1.242015 -7.197931 0.065196 1.617289 35.096051 -6.805328 -15.196515 -11.455115 0.000000 0.000000 0.000000 1.624497 -0.517177 9.637257 -0.079352 -0.034893 3.220472 1.844221 0.247213 9.037466 -5.724581 4.530962 -26.413063 0.000000 0.000000 0.000000 -14.189257 3.551523 -2.808468 -41.245933 4.664434 -6.682101 -118.453390 -52.076556 84.308773 0.000000 0.000000 0.000000 3.602060 4.162330 1.242411 52.565281 6.443979 -2.781318 113.817134 70.705537 98.535639 0.000000 0.000000 0.000000 
-0.153502 0.936188 -0.039852 0.994441 -3.251546 -1.164170 -0.139600 -1.996595 -22.645869 -2.272954 0.711860 73.950652 2.298368 7.893585 10.410404 0.000000 0.000000 0.000000 6.682384 -0.781944 4.032028 -1.934828 2.000171 26.144982 -5.030743 -11.152400 -4.584197 0.000000 0.000000 0.000000 -0.814162 -0.263638 8.698025 -1.705128 0.819416 -1.983085 3.185757 7.275051 13.075214 -2.661489 3.685422 -23.124838 0.000000 0.000000 0.000000 -11.566567 5.818244 -4.261670 -39.910921 10.357256 -8.230603 -120.058443 -45.896646 74.407710 0.000000 0.000000 0.000000 0.243224 2.462540 0.866566 55.811350 10.000653 -0.983657 134.173563 69.022212 126.236024 0.000000 0.000000 0.000000 
-0.153488 0.984981 -0.035036 3.290812 -3.202818 1.545490 -5.242865 -3.694874 -28.458961 -1.666754 -0.001677 52.910356 3.821066 10.415350 10.975742 0.000000 0.000000 0.000000 2.451303 -1.435907 11.793643 -3.026080 1.613853 17.572693 -1.939843 -9.204219 12.797173 0.000000 0.000000 0.000000 -3.343907 0.009277 4.529345 -2.891313 1.361361 -1.668925 3.956704 10.790313 10.976807 -1.370656 3.151569 -19.468798 0.000000 0.000000 0.000000 -9.565506 7.560677 -4.999616 -36.959537 14.108577 -8.394155 -119.566417 -44.064468 68.832474 0.000000 0.000000 0.000000 -0.956263 3.504669 1.230250 57.511018 10.488454 0.042148 138.224909 68.075197 133.057945 0.000000 0.000000 0.000000 
-0.153471 1.023328 -0.025066 4.008421 -2.579044 4.165919 -7.574716 -4.147600 -27.880182 0.699542 -0.912801 24.181509 2.279524 8.644635 14.480569 0.000000 0.000000 0.000000 0.336383 -1.441334 14.670149 -2.738867 1.566579 18.315698 0.124976 -8.630629 24.512125 0.000000 0.000000 0.000000 -4.298077 0.107751 0.532028 -2.214672 1.045847 -1.698456 2.614506 13.082131 9.920994 0.918940 1.956405 -17.378405 0.000000 0.000000 0.000000 -5.329520 6.762503 -3.765538 -38.797725 16.260727 -9.639413 -118.692120 -43.447716 64.802549 0.000000 0.000000 0.000000 -2.147671 2.487077 0.789317 57.682058 7.466150 -0.844386 133.823025 62.023340 123.591207 0.000000 0.000000 0.000000 
